# Made in Blockbench 5.0.7
mtllib small_shield.mtl

o shieldsmall_0
v 0.03125000000000003 1 -0.125
v -0.031249999999999972 1 -0.125
v 0.03125000000000003 0 -0.125
v -0.031249999999999972 0 -0.125
v -0.03125000000000003 1 0.125
v 0.031249999999999972 1 0.125
v -0.03125000000000003 0 0.125
v 0.031249999999999972 0 0.125
vt 0.140625 0.8125
vt 0.15625 0.8125
vt 0.15625 0.5625
vt 0.140625 0.5625
vt 0.09375 0.8125
vt 0.15625 0.8125
vt 0.15625 0.5625
vt 0.09375 0.5625
vt 0.09375 0.8125
vt 0.109375 0.8125
vt 0.109375 0.5625
vt 0.09375 0.5625
vt 0.15625 0.796875
vt 0.09375 0.796875
vt 0.09375 0.8125
vt 0.15625 0.8125
vt 0.15625 0.578125
vt 0.09375 0.578125
vt 0.09375 0.5625
vt 0.15625 0.5625
vn 2.220446049250313e-16 0 -1
vn 1 0 2.220446049250313e-16
vn -2.220446049250313e-16 0 1
vn 0 1 0
vn 0 -1 0
usemtl m_ca4320fc-aad7-4cdf-ca15-173a1faa6baa
f 3/4/1 4/3/1 2/2/1 1/1/1
f 8/8/2 3/7/2 1/6/2 6/5/2
f 7/12/3 8/11/3 6/10/3 5/9/3
f 6/16/4 1/15/4 2/14/4 5/13/4
f 7/20/5 4/19/5 3/18/5 8/17/5
o shieldsmall_1
v 0.031249999999999972 0.9375 0.125
v -0.03125000000000003 0.9375 0.125
v 0.031249999999999972 0.0625 0.125
v -0.03125000000000003 0.0625 0.125
v -0.031250000000000056 0.9375 0.25
v 0.031249999999999944 0.9375 0.25
v -0.031250000000000056 0.0625 0.25
v 0.031249999999999944 0.0625 0.25
vt 0.0625 0.796875
vt 0.09375 0.796875
vt 0.09375 0.578125
vt 0.0625 0.578125
vt 0.0625 0.796875
vt 0.078125 0.796875
vt 0.078125 0.578125
vt 0.0625 0.578125
vt 0.09375 0.78125
vt 0.0625 0.78125
vt 0.0625 0.796875
vt 0.09375 0.796875
vt 0.09375 0.59375
vt 0.0625 0.59375
vt 0.0625 0.578125
vt 0.09375 0.578125
vn 1 0 2.220446049250313e-16
vn -2.220446049250313e-16 0 1
vn 0 1 0
vn 0 -1 0
usemtl m_ca4320fc-aad7-4cdf-ca15-173a1faa6baa
f 16/24/6 11/23/6 9/22/6 14/21/6
f 15/28/7 16/27/7 14/26/7 13/25/7
f 14/32/8 9/31/8 10/30/8 13/29/8
f 15/36/9 12/35/9 11/34/9 16/33/9
o shieldsmall_2
v 0.031250000000000056 0.9375 -0.25
v -0.031249999999999944 0.9375 -0.25
v 0.031250000000000056 0.0625 -0.25
v -0.031249999999999944 0.0625 -0.25
v -0.031249999999999972 0.9375 -0.125
v 0.03125000000000003 0.9375 -0.125
v -0.031249999999999972 0.0625 -0.125
v 0.03125000000000003 0.0625 -0.125
vt 0.15625 0.796875
vt 0.171875 0.796875
vt 0.171875 0.578125
vt 0.15625 0.578125
vt 0.15625 0.796875
vt 0.1875 0.796875
vt 0.1875 0.578125
vt 0.15625 0.578125
vt 0.1875 0.78125
vt 0.15625 0.78125
vt 0.15625 0.796875
vt 0.1875 0.796875
vt 0.1875 0.59375
vt 0.15625 0.59375
vt 0.15625 0.578125
vt 0.1875 0.578125
vn 2.220446049250313e-16 0 -1
vn 1 0 2.220446049250313e-16
vn 0 1 0
vn 0 -1 0
usemtl m_ca4320fc-aad7-4cdf-ca15-173a1faa6baa
f 19/40/10 20/39/10 18/38/10 17/37/10
f 24/44/11 19/43/11 17/42/11 22/41/11
f 22/48/12 17/47/12 18/46/12 21/45/12
f 23/52/13 20/51/13 19/50/13 24/49/13
o handle
v -0.40625 0.6875 0.06250000000000004
v -0.03125 0.6875 0.06249999999999996
v -0.40625 0.3125 0.06250000000000004
v -0.03125 0.3125 0.06249999999999996
v -0.03125 0.6875 -0.06250000000000004
v -0.40625 0.6875 -0.06249999999999996
v -0.03125 0.3125 -0.06250000000000004
v -0.40625 0.3125 -0.06249999999999996
vt 0 0.90625
vt 0.09375 0.90625
vt 0.09375 0.8125
vt 0 0.8125
vt 0.21875 0.90625
vt 0.25 0.90625
vt 0.25 0.8125
vt 0.21875 0.8125
vt 0.125 0.90625
vt 0.21875 0.90625
vt 0.21875 0.8125
vt 0.125 0.8125
vt 0.125 0.90625
vt 0.09375 0.90625
vt 0.09375 1
vt 0.125 1
vt 0.15625 1
vt 0.125 1
vt 0.125 0.90625
vt 0.15625 0.90625
vn 2.220446049250313e-16 0 1
vn -1 0 2.220446049250313e-16
vn -2.220446049250313e-16 0 -1
vn 0 1 0
vn 0 -1 0
usemtl m_ca4320fc-aad7-4cdf-ca15-173a1faa6baa
f 27/56/14 28/55/14 26/54/14 25/53/14
f 32/60/15 27/59/15 25/58/15 30/57/15
f 31/64/16 32/63/16 30/62/16 29/61/16
f 30/68/17 25/67/17 26/66/17 29/65/17
f 31/72/18 28/71/18 27/70/18 32/69/18
o shieldsmall_3
v 0.031249999999999944 0.875 0.25
v -0.031250000000000056 0.875 0.25
v 0.031249999999999944 0.125 0.25
v -0.031250000000000056 0.125 0.25
v -0.03125000000000007 0.875 0.3125
v 0.03124999999999993 0.875 0.3125
v -0.03125000000000007 0.125 0.3125
v 0.03124999999999993 0.125 0.3125
vt 0.0625 0.78125
vt 0.046875 0.78125
vt 0.046875 0.59375
vt 0.0625 0.59375
vt 0.046875 0.78125
vt 0.0625 0.78125
vt 0.0625 0.59375
vt 0.046875 0.59375
vt 0.0625 0.765625
vt 0.046875 0.765625
vt 0.046875 0.78125
vt 0.0625 0.78125
vt 0.0625 0.609375
vt 0.046875 0.609375
vt 0.046875 0.59375
vt 0.0625 0.59375
vn 1 0 2.220446049250313e-16
vn -2.220446049250313e-16 0 1
vn 0 1 0
vn 0 -1 0
usemtl m_ca4320fc-aad7-4cdf-ca15-173a1faa6baa
f 40/76/19 35/75/19 33/74/19 38/73/19
f 39/80/20 40/79/20 38/78/20 37/77/20
f 38/84/21 33/83/21 34/82/21 37/81/21
f 39/88/22 36/87/22 35/86/22 40/85/22
o shieldsmall_4
v 0.03125000000000007 0.875 -0.3125
v -0.03124999999999993 0.875 -0.3125
v 0.03125000000000007 0.125 -0.3125
v -0.03124999999999993 0.125 -0.3125
v -0.031249999999999944 0.875 -0.25
v 0.031250000000000056 0.875 -0.25
v -0.031249999999999944 0.125 -0.25
v 0.031250000000000056 0.125 -0.25
vt 0.1875 0.78125
vt 0.203125 0.78125
vt 0.203125 0.59375
vt 0.1875 0.59375
vt 0.1875 0.78125
vt 0.203125 0.78125
vt 0.203125 0.59375
vt 0.1875 0.59375
vt 0.203125 0.765625
vt 0.1875 0.765625
vt 0.1875 0.78125
vt 0.203125 0.78125
vt 0.203125 0.609375
vt 0.1875 0.609375
vt 0.1875 0.59375
vt 0.203125 0.59375
vn 2.220446049250313e-16 0 -1
vn 1 0 2.220446049250313e-16
vn 0 1 0
vn 0 -1 0
usemtl m_ca4320fc-aad7-4cdf-ca15-173a1faa6baa
f 43/92/23 44/91/23 42/90/23 41/89/23
f 48/96/24 43/95/24 41/94/24 46/93/24
f 46/100/25 41/99/25 42/98/25 45/97/25
f 47/104/26 44/103/26 43/102/26 48/101/26
o shieldsmall_5
v 0.03124999999999993 0.8125 0.3125
v -0.03125000000000007 0.8125 0.3125
v 0.03124999999999993 0.1875 0.3125
v -0.03125000000000007 0.1875 0.3125
v -0.03125000000000008 0.8125 0.375
v 0.031249999999999917 0.8125 0.375
v -0.03125000000000008 0.1875 0.375
v 0.031249999999999917 0.1875 0.375
vt 0.03125 0.765625
vt 0.046875 0.765625
vt 0.046875 0.609375
vt 0.03125 0.609375
vt 0.03125 0.765625
vt 0.046875 0.765625
vt 0.046875 0.609375
vt 0.03125 0.609375
vt 0.046875 0.75
vt 0.03125 0.75
vt 0.03125 0.765625
vt 0.046875 0.765625
vt 0.046875 0.625
vt 0.03125 0.625
vt 0.03125 0.609375
vt 0.046875 0.609375
vn 1 0 2.220446049250313e-16
vn -2.220446049250313e-16 0 1
vn 0 1 0
vn 0 -1 0
usemtl m_ca4320fc-aad7-4cdf-ca15-173a1faa6baa
f 56/108/27 51/107/27 49/106/27 54/105/27
f 55/112/28 56/111/28 54/110/28 53/109/28
f 54/116/29 49/115/29 50/114/29 53/113/29
f 55/120/30 52/119/30 51/118/30 56/117/30
o shieldsmall_6
v 0.03125000000000008 0.8125 -0.375
v -0.031249999999999917 0.8125 -0.375
v 0.03125000000000008 0.1875 -0.375
v -0.031249999999999917 0.1875 -0.375
v -0.03124999999999993 0.8125 -0.3125
v 0.03125000000000007 0.8125 -0.3125
v -0.03124999999999993 0.1875 -0.3125
v 0.03125000000000007 0.1875 -0.3125
vt 0.203125 0.765625
vt 0.21875 0.765625
vt 0.21875 0.609375
vt 0.203125 0.609375
vt 0.203125 0.765625
vt 0.21875 0.765625
vt 0.21875 0.609375
vt 0.203125 0.609375
vt 0.21875 0.75
vt 0.203125 0.75
vt 0.203125 0.765625
vt 0.21875 0.765625
vt 0.21875 0.625
vt 0.203125 0.625
vt 0.203125 0.609375
vt 0.21875 0.609375
vn 2.220446049250313e-16 0 -1
vn 1 0 2.220446049250313e-16
vn 0 1 0
vn 0 -1 0
usemtl m_ca4320fc-aad7-4cdf-ca15-173a1faa6baa
f 59/124/31 60/123/31 58/122/31 57/121/31
f 64/128/32 59/127/32 57/126/32 62/125/32
f 62/132/33 57/131/33 58/130/33 61/129/33
f 63/136/34 60/135/34 59/134/34 64/133/34
o shieldsmall_7
v 0.031249999999999917 0.75 0.375
v -0.03125000000000008 0.75 0.375
v 0.031249999999999917 0.25 0.375
v -0.03125000000000008 0.25 0.375
v -0.0312500000000001 0.75 0.4375
v 0.031249999999999903 0.75 0.4375
v -0.0312500000000001 0.25 0.4375
v 0.031249999999999903 0.25 0.4375
vt 0.015625 0.75
vt 0.03125 0.75
vt 0.03125 0.625
vt 0.015625 0.625
vt 0.015625 0.75
vt 0.03125 0.75
vt 0.03125 0.625
vt 0.015625 0.625
vt 0.03125 0.734375
vt 0.015625 0.734375
vt 0.015625 0.75
vt 0.03125 0.75
vt 0.03125 0.640625
vt 0.015625 0.640625
vt 0.015625 0.625
vt 0.03125 0.625
vn 1 0 2.220446049250313e-16
vn -2.220446049250313e-16 0 1
vn 0 1 0
vn 0 -1 0
usemtl m_ca4320fc-aad7-4cdf-ca15-173a1faa6baa
f 72/140/35 67/139/35 65/138/35 70/137/35
f 71/144/36 72/143/36 70/142/36 69/141/36
f 70/148/37 65/147/37 66/146/37 69/145/37
f 71/152/38 68/151/38 67/150/38 72/149/38
o shieldsmall_8
v 0.0312500000000001 0.75 -0.4375
v -0.031249999999999903 0.75 -0.4375
v 0.0312500000000001 0.25 -0.4375
v -0.031249999999999903 0.25 -0.4375
v -0.031249999999999917 0.75 -0.375
v 0.03125000000000008 0.75 -0.375
v -0.031249999999999917 0.25 -0.375
v 0.03125000000000008 0.25 -0.375
vt 0.21875 0.75
vt 0.234375 0.75
vt 0.234375 0.625
vt 0.21875 0.625
vt 0.21875 0.75
vt 0.234375 0.75
vt 0.234375 0.625
vt 0.21875 0.625
vt 0.234375 0.734375
vt 0.21875 0.734375
vt 0.21875 0.75
vt 0.234375 0.75
vt 0.234375 0.640625
vt 0.21875 0.640625
vt 0.21875 0.625
vt 0.234375 0.625
vn 2.220446049250313e-16 0 -1
vn 1 0 2.220446049250313e-16
vn 0 1 0
vn 0 -1 0
usemtl m_ca4320fc-aad7-4cdf-ca15-173a1faa6baa
f 75/156/39 76/155/39 74/154/39 73/153/39
f 80/160/40 75/159/40 73/158/40 78/157/40
f 78/164/41 73/163/41 74/162/41 77/161/41
f 79/168/42 76/167/42 75/166/42 80/165/42
o shieldsmall_9
v 0.031249999999999903 0.625 0.4375
v -0.0312500000000001 0.625 0.4375
v 0.031249999999999903 0.375 0.4375
v -0.0312500000000001 0.375 0.4375
v -0.03125000000000011 0.625 0.5
v 0.03124999999999989 0.625 0.5
v -0.03125000000000011 0.375 0.5
v 0.03124999999999989 0.375 0.5
vt 0 0.71875
vt 0.015625 0.71875
vt 0.015625 0.65625
vt 0 0.65625
vt 0 0.71875
vt 0.015625 0.71875
vt 0.015625 0.65625
vt 0 0.65625
vt 0.015625 0.703125
vt 0 0.703125
vt 0 0.71875
vt 0.015625 0.71875
vt 0.015625 0.671875
vt 0 0.671875
vt 0 0.65625
vt 0.015625 0.65625
vn 1 0 2.220446049250313e-16
vn -2.220446049250313e-16 0 1
vn 0 1 0
vn 0 -1 0
usemtl m_ca4320fc-aad7-4cdf-ca15-173a1faa6baa
f 88/172/43 83/171/43 81/170/43 86/169/43
f 87/176/44 88/175/44 86/174/44 85/173/44
f 86/180/45 81/179/45 82/178/45 85/177/45
f 87/184/46 84/183/46 83/182/46 88/181/46
o shieldsmall_10
v 0.03125000000000011 0.625 -0.5
v -0.03124999999999989 0.625 -0.5
v 0.03125000000000011 0.375 -0.5
v -0.03124999999999989 0.375 -0.5
v -0.031249999999999903 0.625 -0.4375
v 0.0312500000000001 0.625 -0.4375
v -0.031249999999999903 0.375 -0.4375
v 0.0312500000000001 0.375 -0.4375
vt 0.234375 0.71875
vt 0.25 0.71875
vt 0.25 0.65625
vt 0.234375 0.65625
vt 0.234375 0.71875
vt 0.25 0.71875
vt 0.25 0.65625
vt 0.234375 0.65625
vt 0.25 0.703125
vt 0.234375 0.703125
vt 0.234375 0.71875
vt 0.25 0.71875
vt 0.25 0.671875
vt 0.234375 0.671875
vt 0.234375 0.65625
vt 0.25 0.65625
vn 2.220446049250313e-16 0 -1
vn 1 0 2.220446049250313e-16
vn 0 1 0
vn 0 -1 0
usemtl m_ca4320fc-aad7-4cdf-ca15-173a1faa6baa
f 91/188/47 92/187/47 90/186/47 89/185/47
f 96/192/48 91/191/48 89/190/48 94/189/48
f 94/196/49 89/195/49 90/194/49 93/193/49
f 95/200/50 92/199/50 91/198/50 96/197/50
o shieldsmall_9
v -0.02500000000000012 0.625 0.4375
v -0.03125000000000021 0.625 0.4375
v -0.02500000000000012 0.375 0.4375
v -0.03125000000000021 0.375 0.4375
v -0.03125000000000022 0.625 0.5
v -0.025000000000000133 0.625 0.5
v -0.03125000000000022 0.375 0.5
v -0.025000000000000133 0.375 0.5
vt 0.484375 0.71875
vt 0.5 0.71875
vt 0.5 0.65625
vt 0.484375 0.65625
vt 0.5625 0.171875
vt 0.578125 0.171875
vt 0.578125 0.109375
vt 0.5625 0.109375
vt 0.609375 0.203125
vt 0.59375 0.203125
vt 0.59375 0.21875
vt 0.609375 0.21875
vt 0.609375 0.203125
vt 0.59375 0.203125
vt 0.59375 0.1875
vt 0.609375 0.1875
vn -1 0 -2.220446049250313e-16
vn -2.220446049250313e-16 0 1
vn 0 1 0
vn 0 -1 0
usemtl m_ca4320fc-aad7-4cdf-ca15-173a1faa6baa
f 100/204/51 103/203/51 101/202/51 98/201/51
f 103/208/52 104/207/52 102/206/52 101/205/52
f 102/212/53 97/211/53 98/210/53 101/209/53
f 103/216/54 100/215/54 99/214/54 104/213/54
o shieldsmall_3
v -0.025000000000000078 0.875 0.24999999999999997
v -0.03125000000000017 0.875 0.24999999999999997
v -0.025000000000000078 0.125 0.24999999999999997
v -0.03125000000000017 0.125 0.24999999999999997
v -0.03125000000000018 0.875 0.3125
v -0.02500000000000009 0.875 0.3125
v -0.03125000000000018 0.125 0.3125
v -0.02500000000000009 0.125 0.3125
vt 0.4375 0.78125
vt 0.453125 0.78125
vt 0.453125 0.59375
vt 0.4375 0.59375
vt 0.703125 0.390625
vt 0.71875 0.390625
vt 0.71875 0.203125
vt 0.703125 0.203125
vt 0.609375 0.171875
vt 0.59375 0.171875
vt 0.59375 0.1875
vt 0.609375 0.1875
vt 0.609375 0.171875
vt 0.59375 0.171875
vt 0.59375 0.15625
vt 0.609375 0.15625
vn -1 0 -2.220446049250313e-16
vn -2.220446049250313e-16 0 1
vn 0 1 0
vn 0 -1 0
usemtl m_ca4320fc-aad7-4cdf-ca15-173a1faa6baa
f 108/220/55 111/219/55 109/218/55 106/217/55
f 111/224/56 112/223/56 110/222/56 109/221/56
f 110/228/57 105/227/57 106/226/57 109/225/57
f 111/232/58 108/231/58 107/230/58 112/229/58
o shieldsmall_5
v -0.02500000000000009 0.8125 0.3125
v -0.03125000000000018 0.8125 0.3125
v -0.02500000000000009 0.1875 0.3125
v -0.03125000000000018 0.1875 0.3125
v -0.031250000000000194 0.8125 0.375
v -0.025000000000000105 0.8125 0.375
v -0.031250000000000194 0.1875 0.375
v -0.025000000000000105 0.1875 0.375
vt 0.453125 0.765625
vt 0.46875 0.765625
vt 0.46875 0.609375
vt 0.453125 0.609375
vt 0.53125 0.359375
vt 0.546875 0.359375
vt 0.546875 0.203125
vt 0.53125 0.203125
vt 0.609375 0.140625
vt 0.59375 0.140625
vt 0.59375 0.15625
vt 0.609375 0.15625
vt 0.609375 0.140625
vt 0.59375 0.140625
vt 0.59375 0.125
vt 0.609375 0.125
vn -1 0 -2.220446049250313e-16
vn -2.220446049250313e-16 0 1
vn 0 1 0
vn 0 -1 0
usemtl m_ca4320fc-aad7-4cdf-ca15-173a1faa6baa
f 116/236/59 119/235/59 117/234/59 114/233/59
f 119/240/60 120/239/60 118/238/60 117/237/60
f 118/244/61 113/243/61 114/242/61 117/241/61
f 119/248/62 116/247/62 115/246/62 120/245/62
o shieldsmall_7
v -0.025000000000000105 0.75 0.375
v -0.031250000000000194 0.75 0.375
v -0.025000000000000105 0.25 0.375
v -0.031250000000000194 0.25 0.375
v -0.03125000000000021 0.75 0.4375
v -0.02500000000000012 0.75 0.4375
v -0.03125000000000021 0.25 0.4375
v -0.02500000000000012 0.25 0.4375
vt 0.46875 0.75
vt 0.484375 0.75
vt 0.484375 0.625
vt 0.46875 0.625
vt 0.546875 0.234375
vt 0.5625 0.234375
vt 0.5625 0.109375
vt 0.546875 0.109375
vt 0.59375 0.0625
vt 0.578125 0.0625
vt 0.578125 0.078125
vt 0.59375 0.078125
vt 0.609375 0.078125
vt 0.59375 0.078125
vt 0.59375 0.0625
vt 0.609375 0.0625
vn -1 0 -2.220446049250313e-16
vn -2.220446049250313e-16 0 1
vn 0 1 0
vn 0 -1 0
usemtl m_ca4320fc-aad7-4cdf-ca15-173a1faa6baa
f 124/252/63 127/251/63 125/250/63 122/249/63
f 127/256/64 128/255/64 126/254/64 125/253/64
f 126/260/65 121/259/65 122/258/65 125/257/65
f 127/264/66 124/263/66 123/262/66 128/261/66
o shieldsmall_1
v -0.02500000000000005 0.9375 0.125
v -0.03125000000000014 0.9375 0.125
v -0.02500000000000005 0.0625 0.125
v -0.03125000000000014 0.0625 0.125
v -0.03125000000000017 0.9375 0.25
v -0.025000000000000078 0.9375 0.25
v -0.03125000000000017 0.0625 0.25
v -0.025000000000000078 0.0625 0.25
vt 0.40625 0.796875
vt 0.4375 0.796875
vt 0.4375 0.578125
vt 0.40625 0.578125
vt 0.8125 0.578125
vt 0.828125 0.578125
vt 0.828125 0.359375
vt 0.8125 0.359375
vt 0.609375 0.109375
vt 0.578125 0.109375
vt 0.578125 0.125
vt 0.609375 0.125
vt 0.609375 0.09375
vt 0.578125 0.09375
vt 0.578125 0.078125
vt 0.609375 0.078125
vn -1 0 -2.220446049250313e-16
vn -2.220446049250313e-16 0 1
vn 0 1 0
vn 0 -1 0
usemtl m_ca4320fc-aad7-4cdf-ca15-173a1faa6baa
f 132/268/67 135/267/67 133/266/67 130/265/67
f 135/272/68 136/271/68 134/270/68 133/269/68
f 134/276/69 129/275/69 130/274/69 133/273/69
f 135/280/70 132/279/70 131/278/70 136/277/70
o shieldsmall_0
v -0.024999999999999994 1 -0.125
v -0.03125000000000008 1 -0.125
v -0.024999999999999994 0 -0.125
v -0.03125000000000008 0 -0.125
v -0.03125000000000014 1 0.125
v -0.02500000000000005 1 0.125
v -0.03125000000000014 0 0.125
v -0.02500000000000005 0 0.125
vt 0.34375 0.8125
vt 0.40625 0.8125
vt 0.40625 0.5625
vt 0.34375 0.5625
vt 0.4375 0.5625
vt 0.453125 0.5625
vt 0.453125 0.3125
vt 0.4375 0.3125
vt 0.796875 0.546875
vt 0.8125 0.546875
vt 0.8125 0.296875
vt 0.796875 0.296875
vt 0.609375 0.09375
vt 0.546875 0.09375
vt 0.546875 0.109375
vt 0.609375 0.109375
vt 0.640625 0.53125
vt 0.578125 0.53125
vt 0.578125 0.515625
vt 0.640625 0.515625
vn -1 0 -2.220446049250313e-16
vn 2.220446049250313e-16 0 -1
vn -2.220446049250313e-16 0 1
vn 0 1 0
vn 0 -1 0
usemtl m_ca4320fc-aad7-4cdf-ca15-173a1faa6baa
f 140/284/71 143/283/71 141/282/71 138/281/71
f 139/288/72 140/287/72 138/286/72 137/285/72
f 143/292/73 144/291/73 142/290/73 141/289/73
f 142/296/74 137/295/74 138/294/74 141/293/74
f 143/300/75 140/299/75 139/298/75 144/297/75
o shieldsmall_2
v -0.024999999999999967 0.9375 -0.25
v -0.031250000000000056 0.9375 -0.25
v -0.024999999999999967 0.0625 -0.25
v -0.031250000000000056 0.0625 -0.25
v -0.03125000000000008 0.9375 -0.125
v -0.024999999999999994 0.9375 -0.125
v -0.03125000000000008 0.0625 -0.125
v -0.024999999999999994 0.0625 -0.125
vt 0.3125 0.796875
vt 0.34375 0.796875
vt 0.34375 0.578125
vt 0.3125 0.578125
vt 0.5 0.5625
vt 0.515625 0.5625
vt 0.515625 0.34375
vt 0.5 0.34375
vt 0.625 0.4375
vt 0.59375 0.4375
vt 0.59375 0.453125
vt 0.625 0.453125
vt 0.625 0.4375
vt 0.59375 0.4375
vt 0.59375 0.421875
vt 0.625 0.421875
vn -1 0 -2.220446049250313e-16
vn 2.220446049250313e-16 0 -1
vn 0 1 0
vn 0 -1 0
usemtl m_ca4320fc-aad7-4cdf-ca15-173a1faa6baa
f 148/304/76 151/303/76 149/302/76 146/301/76
f 147/308/77 148/307/77 146/306/77 145/305/77
f 150/312/78 145/311/78 146/310/78 149/309/78
f 151/316/79 148/315/79 147/314/79 152/313/79
o shieldsmall_4
v -0.024999999999999953 0.875 -0.3125
v -0.03125000000000004 0.875 -0.3125
v -0.024999999999999953 0.125 -0.3125
v -0.03125000000000004 0.125 -0.3125
v -0.031250000000000056 0.875 -0.25
v -0.024999999999999967 0.875 -0.25
v -0.031250000000000056 0.125 -0.25
v -0.024999999999999967 0.125 -0.25
vt 0.296875 0.78125
vt 0.3125 0.78125
vt 0.3125 0.59375
vt 0.296875 0.59375
vt 0.53125 0.5625
vt 0.546875 0.5625
vt 0.546875 0.375
vt 0.53125 0.375
vt 0.625 0.28125
vt 0.609375 0.28125
vt 0.609375 0.296875
vt 0.625 0.296875
vt 0.515625 0.859375
vt 0.5 0.859375
vt 0.5 0.84375
vt 0.515625 0.84375
vn -1 0 -2.220446049250313e-16
vn 2.220446049250313e-16 0 -1
vn 0 1 0
vn 0 -1 0
usemtl m_ca4320fc-aad7-4cdf-ca15-173a1faa6baa
f 156/320/80 159/319/80 157/318/80 154/317/80
f 155/324/81 156/323/81 154/322/81 153/321/81
f 158/328/82 153/327/82 154/326/82 157/325/82
f 159/332/83 156/331/83 155/330/83 160/329/83
o shieldsmall_6
v -0.02499999999999994 0.8125 -0.375
v -0.03125000000000003 0.8125 -0.375
v -0.02499999999999994 0.1875 -0.375
v -0.03125000000000003 0.1875 -0.375
v -0.03125000000000004 0.8125 -0.3125
v -0.024999999999999953 0.8125 -0.3125
v -0.03125000000000004 0.1875 -0.3125
v -0.024999999999999953 0.1875 -0.3125
vt 0.28125 0.765625
vt 0.296875 0.765625
vt 0.296875 0.609375
vt 0.28125 0.609375
vt 0.5625 0.359375
vt 0.578125 0.359375
vt 0.578125 0.203125
vt 0.5625 0.203125
vt 0.640625 0.28125
vt 0.625 0.28125
vt 0.625 0.296875
vt 0.640625 0.296875
vt 0.515625 0.84375
vt 0.5 0.84375
vt 0.5 0.828125
vt 0.515625 0.828125
vn -1 0 -2.220446049250313e-16
vn 2.220446049250313e-16 0 -1
vn 0 1 0
vn 0 -1 0
usemtl m_ca4320fc-aad7-4cdf-ca15-173a1faa6baa
f 164/336/84 167/335/84 165/334/84 162/333/84
f 163/340/85 164/339/85 162/338/85 161/337/85
f 166/344/86 161/343/86 162/342/86 165/341/86
f 167/348/87 164/347/87 163/346/87 168/345/87
o shieldsmall_8
v -0.024999999999999925 0.75 -0.4375
v -0.031250000000000014 0.75 -0.4375
v -0.024999999999999925 0.25 -0.4375
v -0.031250000000000014 0.25 -0.4375
v -0.03125000000000003 0.75 -0.375
v -0.02499999999999994 0.75 -0.375
v -0.03125000000000003 0.25 -0.375
v -0.02499999999999994 0.25 -0.375
vt 0.265625 0.75
vt 0.28125 0.75
vt 0.28125 0.625
vt 0.265625 0.625
vt 0.828125 0.359375
vt 0.84375 0.359375
vt 0.84375 0.234375
vt 0.828125 0.234375
vt 0.65625 0.28125
vt 0.640625 0.28125
vt 0.640625 0.296875
vt 0.65625 0.296875
vt 0.515625 0.828125
vt 0.5 0.828125
vt 0.5 0.8125
vt 0.515625 0.8125
vn -1 0 -2.220446049250313e-16
vn 2.220446049250313e-16 0 -1
vn 0 1 0
vn 0 -1 0
usemtl m_ca4320fc-aad7-4cdf-ca15-173a1faa6baa
f 172/352/88 175/351/88 173/350/88 170/349/88
f 171/356/89 172/355/89 170/354/89 169/353/89
f 174/360/90 169/359/90 170/358/90 173/357/90
f 175/364/91 172/363/91 171/362/91 176/361/91
o shieldsmall_10
v -0.02499999999999991 0.625 -0.5
v -0.03125 0.625 -0.5
v -0.02499999999999991 0.375 -0.5
v -0.03125 0.375 -0.5
v -0.031250000000000014 0.625 -0.4375
v -0.024999999999999925 0.625 -0.4375
v -0.031250000000000014 0.375 -0.4375
v -0.024999999999999925 0.375 -0.4375
vt 0.25 0.71875
vt 0.265625 0.71875
vt 0.265625 0.65625
vt 0.25 0.65625
vt 0.578125 0.359375
vt 0.59375 0.359375
vt 0.59375 0.296875
vt 0.578125 0.296875
vt 0.515625 0.796875
vt 0.5 0.796875
vt 0.5 0.8125
vt 0.515625 0.8125
vt 0.515625 0.796875
vt 0.5 0.796875
vt 0.5 0.78125
vt 0.515625 0.78125
vn -1 0 -2.220446049250313e-16
vn 2.220446049250313e-16 0 -1
vn 0 1 0
vn 0 -1 0
usemtl m_ca4320fc-aad7-4cdf-ca15-173a1faa6baa
f 180/368/92 183/367/92 181/366/92 178/365/92
f 179/372/93 180/371/93 178/370/93 177/369/93
f 182/376/94 177/375/94 178/374/94 181/373/94
f 183/380/95 180/379/95 179/378/95 184/377/95
o cube
v 0.0625 0.578125 0.078125
v 0.0625 0.578125 -0.078125
v 0.0625 0.421875 0.078125
v 0.0625 0.421875 -0.078125
v 0.03125 0.578125 -0.078125
v 0.03125 0.578125 0.078125
v 0.03125 0.421875 -0.078125
v 0.03125 0.421875 0.078125
vt 0.390625 0.9375
vt 0.40625 0.9375
vt 0.40625 0.890625
vt 0.390625 0.890625
vt 0.34375 0.9375
vt 0.390625 0.9375
vt 0.390625 0.890625
vt 0.34375 0.890625
vt 0.328125 0.9375
vt 0.34375 0.9375
vt 0.34375 0.890625
vt 0.328125 0.890625
vt 0.375 0.9375
vt 0.359375 0.9375
vt 0.359375 0.984375
vt 0.375 0.984375
vt 0.390625 0.890625
vt 0.375 0.890625
vt 0.375 0.84375
vt 0.390625 0.84375
vn 0 0 -1
vn 1 0 0
vn 0 0 1
vn 0 1 0
vn 0 -1 0
usemtl m_ca4320fc-aad7-4cdf-ca15-173a1faa6baa
f 188/384/96 191/383/96 189/382/96 186/381/96
f 187/388/97 188/387/97 186/386/97 185/385/97
f 192/392/98 187/391/98 185/390/98 190/389/98
f 190/396/99 185/395/99 186/394/99 189/393/99
f 191/400/100 188/399/100 187/398/100 192/397/100